<svg width="10" height="10" viewBox="0 0 10 10" fill="none" xmlns="http://www.w3.org/2000/svg">
<path d="M0.939453 7.94844C1.16051 7.42481 1.48132 6.94918 1.88398 6.54805C2.28543 6.14575 2.76098 5.82501 3.28437 5.60352C3.28906 5.60117 3.29375 5.6 3.29844 5.59766C2.56836 5.07031 2.09375 4.21133 2.09375 3.24219C2.09375 1.63672 3.39453 0.335938 5 0.335938C6.60547 0.335938 7.90625 1.63672 7.90625 3.24219C7.90625 4.21133 7.43164 5.07031 6.70156 5.59883C6.70625 5.60117 6.71094 5.60234 6.71563 5.60469C7.24063 5.82617 7.71172 6.14375 8.11602 6.54922C8.51831 6.95066 8.83906 7.42622 9.06055 7.94961C9.27814 8.46202 9.39549 9.01138 9.40625 9.56797C9.40656 9.58048 9.40437 9.59292 9.3998 9.60457C9.39523 9.61621 9.38837 9.62683 9.37964 9.63578C9.3709 9.64474 9.36046 9.65185 9.34893 9.65671C9.3374 9.66157 9.32501 9.66407 9.3125 9.66406H8.60938C8.55781 9.66406 8.5168 9.62305 8.51563 9.57266C8.49219 8.66797 8.12891 7.8207 7.48672 7.17852C6.82227 6.51406 5.93984 6.14844 5 6.14844C4.06016 6.14844 3.17773 6.51406 2.51328 7.17852C1.87109 7.8207 1.50781 8.66797 1.48438 9.57266C1.4832 9.62422 1.44219 9.66406 1.39062 9.66406H0.6875C0.674989 9.66407 0.662603 9.66157 0.651073 9.65671C0.639544 9.65185 0.629103 9.64474 0.620366 9.63578C0.611629 9.62683 0.604774 9.61621 0.600203 9.60457C0.595631 9.59292 0.593437 9.58048 0.59375 9.56797C0.605469 9.00781 0.721484 8.46289 0.939453 7.94844ZM5 5.25781C5.53789 5.25781 6.04414 5.04805 6.425 4.66719C6.80586 4.28633 7.01563 3.78008 7.01563 3.24219C7.01563 2.7043 6.80586 2.19805 6.425 1.81719C6.04414 1.43633 5.53789 1.22656 5 1.22656C4.46211 1.22656 3.95586 1.43633 3.575 1.81719C3.19414 2.19805 2.98438 2.7043 2.98438 3.24219C2.98438 3.78008 3.19414 4.28633 3.575 4.66719C3.95586 5.04805 4.46211 5.25781 5 5.25781Z" fill="black" fill-opacity="0.65"/>
</svg>
