<svg width="74" height="32" viewBox="0 0 74 32" fill="none" xmlns="http://www.w3.org/2000/svg">
<path d="M0 23.04V0H4.352V18.976H14.272V23.04H0Z" fill="#092433"/>
<path d="M24.7685 23.52C23.0298 23.52 21.5045 23.1307 20.1925 22.352C18.8805 21.5733 17.8565 20.5013 17.1205 19.136C16.3952 17.76 16.0325 16.1813 16.0325 14.4C16.0325 12.5973 16.4058 11.0133 17.1525 9.648C17.8992 8.272 18.9285 7.2 20.2405 6.432C21.5525 5.664 23.0618 5.28 24.7685 5.28C26.5072 5.28 28.0325 5.66933 29.3445 6.448C30.6672 7.22667 31.6965 8.304 32.4325 9.68C33.1685 11.0453 33.5365 12.6187 33.5365 14.4C33.5365 16.192 33.1632 17.776 32.4165 19.152C31.6805 20.5173 30.6512 21.5893 29.3285 22.368C28.0165 23.136 26.4965 23.52 24.7685 23.52ZM24.7685 19.456C26.1658 19.456 27.2058 18.9867 27.8885 18.048C28.5818 17.0987 28.9285 15.8827 28.9285 14.4C28.9285 12.864 28.5765 11.6373 27.8725 10.72C27.1792 9.80267 26.1445 9.344 24.7685 9.344C23.8192 9.344 23.0405 9.55733 22.4325 9.984C21.8245 10.4107 21.3712 11.0027 21.0725 11.76C20.7845 12.5173 20.6405 13.3973 20.6405 14.4C20.6405 15.9467 20.9872 17.1787 21.6805 18.096C22.3845 19.0027 23.4138 19.456 24.7685 19.456Z" fill="#092433"/>
<path d="M44.447 31.2C43.4657 31.2 42.5323 31.04 41.647 30.72C40.7617 30.4107 39.967 29.9733 39.263 29.408C38.5697 28.8533 38.0043 28.2027 37.567 27.456L41.599 25.504C41.8763 26.016 42.271 26.4053 42.783 26.672C43.3057 26.9387 43.871 27.072 44.479 27.072C45.1297 27.072 45.743 26.96 46.319 26.736C46.895 26.5227 47.3537 26.1973 47.695 25.76C48.047 25.3333 48.2123 24.8 48.191 24.16V19.136H48.735V5.76H52.543V24.224C52.543 24.6507 52.5217 25.0507 52.479 25.424C52.447 25.808 52.383 26.1867 52.287 26.56C52.0097 27.616 51.4923 28.4853 50.735 29.168C49.9883 29.8507 49.071 30.3573 47.983 30.688C46.895 31.0293 45.7163 31.2 44.447 31.2ZM44.063 23.52C42.4737 23.52 41.0817 23.12 39.887 22.32C38.6923 21.52 37.759 20.432 37.087 19.056C36.4257 17.68 36.095 16.128 36.095 14.4C36.095 12.64 36.431 11.0773 37.103 9.712C37.7857 8.336 38.7403 7.25333 39.967 6.464C41.1937 5.67467 42.6337 5.28 44.287 5.28C45.9297 5.28 47.311 5.68 48.431 6.48C49.551 7.28 50.399 8.368 50.975 9.744C51.551 11.12 51.839 12.672 51.839 14.4C51.839 16.128 51.5457 17.68 50.959 19.056C50.383 20.432 49.519 21.52 48.367 22.32C47.215 23.12 45.7803 23.52 44.063 23.52ZM44.767 19.648C45.7377 19.648 46.511 19.4293 47.087 18.992C47.6737 18.5547 48.095 17.9413 48.351 17.152C48.607 16.3627 48.735 15.4453 48.735 14.4C48.735 13.3547 48.607 12.4373 48.351 11.648C48.095 10.8587 47.6843 10.2453 47.119 9.808C46.5643 9.37067 45.8337 9.152 44.927 9.152C43.9563 9.152 43.1563 9.392 42.527 9.872C41.9083 10.3413 41.4497 10.976 41.151 11.776C40.8523 12.5653 40.703 13.44 40.703 14.4C40.703 15.3707 40.847 16.256 41.135 17.056C41.423 17.8453 41.8657 18.4747 42.463 18.944C43.0603 19.4133 43.8283 19.648 44.767 19.648Z" fill="#092433"/>
<path d="M64.7998 23.52C63.0611 23.52 61.5358 23.1307 60.2238 22.352C58.9118 21.5733 57.8877 20.5013 57.1517 19.136C56.4264 17.76 56.0638 16.1813 56.0638 14.4C56.0638 12.5973 56.4371 11.0133 57.1838 9.648C57.9304 8.272 58.9598 7.2 60.2718 6.432C61.5838 5.664 63.0931 5.28 64.7998 5.28C66.5384 5.28 68.0638 5.66933 69.3757 6.448C70.6984 7.22667 71.7278 8.304 72.4638 9.68C73.1998 11.0453 73.5677 12.6187 73.5677 14.4C73.5677 16.192 73.1944 17.776 72.4478 19.152C71.7118 20.5173 70.6824 21.5893 69.3597 22.368C68.0477 23.136 66.5277 23.52 64.7998 23.52ZM64.7998 19.456C66.1971 19.456 67.2371 18.9867 67.9198 18.048C68.6131 17.0987 68.9597 15.8827 68.9597 14.4C68.9597 12.864 68.6077 11.6373 67.9037 10.72C67.2104 9.80267 66.1758 9.344 64.7998 9.344C63.8504 9.344 63.0717 9.55733 62.4637 9.984C61.8557 10.4107 61.4024 11.0027 61.1037 11.76C60.8158 12.5173 60.6717 13.3973 60.6717 14.4C60.6717 15.9467 61.0184 17.1787 61.7118 18.096C62.4157 19.0027 63.4451 19.456 64.7998 19.456Z" fill="#092433"/>
</svg>
